<svg width="80" height="80" viewBox="0 0 80 80" fill="none" xmlns="http://www.w3.org/2000/svg">
<path d="M40 70C56.5685 70 70 56.5685 70 40C70 23.4315 56.5685 10 40 10C23.4315 10 10 23.4315 10 40C10 56.5685 23.4315 70 40 70Z" fill="#273DA4"/>
<path d="M28.23 42.15C23.7 44.15 17.9 41.2 21.01 47.87C22.43 50.92 23.79 60.51 24.01 62.02C24.83 69.14 22.84 69.68 26.01 71.53C35.76 77.22 49.29 72.38 49.29 72.38C49.29 72.38 47.84 59.68 47.5 56.63C47.36 55.37 47.5 56.63 57.5 50.76C62.64 47.76 62.28 43.76 61.63 40.97C61.21 39.18 52.18 32.46 51.32 31.65L49.32 33.11C48.89 33.65 55.17 40.54 51.99 42.82C47.88 45.82 40.47 42.74 38.85 42.52C37.46 42.86 35.55 43.19 28.23 42.15Z" fill="#F1E324"/>
<path d="M52.8961 29.7027L43.2832 24.1527L39.6582 30.4314L49.2711 35.9814L52.8961 29.7027Z" fill="#E0DEE9" stroke="#010101" stroke-width="0.25"/>
<path d="M51.5389 30.046L43.9005 25.636L41.0205 30.6243L48.6589 35.0343L51.5389 30.046Z" stroke="#010101" stroke-width="0.25"/>
<path d="M44.24 30.37C44.16 31.78 46.19 33.53 49.24 33.11C49.11 35.47 46.38 35.91 46.38 35.91C47.0283 36.4889 47.7868 36.9311 48.61 37.21C48.49 37.83 45.45 38.46 44.27 38.36C44.08 39.06 45.27 39.56 45.87 39.73C40.28 41.08 37.93 37.22 37.45 35.12C39.76 33 44.32 29 44.24 30.37Z" fill="#010101" stroke="#010101"/>
<path fill-rule="evenodd" clip-rule="evenodd" d="M38.55 10.17L38 10.12C32.39 9.83996 29 14.38 28.91 19.91L28.79 21.91C27.71 22.01 26.25 22.57 26.62 24.91C26.64 25.4444 26.8289 25.9588 27.1595 26.3792C27.4901 26.7996 27.9454 27.1045 28.46 27.25L27.46 42.92C29.2522 44.1822 31.3439 44.9526 33.5266 45.1544C35.7094 45.3562 37.9069 44.9823 39.9 44.07L40.05 44C40.15 42.44 40.78 38.43 40.78 38.43C40.78 38.43 46.22 38.19 46.86 32.92C47.17 30.37 47.38 25.08 47.51 20.29C47.564 17.7933 46.6667 15.3696 45 13.51C43.3404 11.633 41.0407 10.4421 38.55 10.17Z" fill="#EFC7B2"/>
<path d="M38 10.12V9.99998V10.12ZM38.52 10.17V10.07V10.17ZM28.79 21.91H28.89V22H28.81L28.79 21.91ZM28.46 27.25V27.16H28.54V27.24L28.46 27.25ZM27.46 42.92L27.4 43.01V42.9L27.46 42.92ZM39.9 44.07V44.16V44.07ZM40.05 44H40.15V44.06H40.09L40.05 44ZM40.78 38.43H40.68V38.35H40.76L40.78 38.43ZM46.86 32.92H46.76H46.86ZM45 13.51L44.92 13.58L45 13.51ZM38 9.99998L38.52 10.05V10.25H38V9.99998ZM28.8 19.89C28.7845 17.2911 29.6717 14.7675 31.31 12.75C32.1308 11.7984 33.1642 11.0535 34.3264 10.5757C35.4887 10.0979 36.7473 9.9007 38 9.99998V10.2C36.781 10.1115 35.5582 10.3096 34.4295 10.7785C33.3008 11.2473 32.2975 11.9739 31.5 12.9C29.8992 14.8809 29.0303 17.3531 29.04 19.9L28.8 19.89ZM28.68 21.89L28.8 19.89H29L28.88 21.89H28.68ZM28.79 22C28.2107 22.0276 27.6577 22.2495 27.22 22.63C26.9529 22.928 26.766 23.289 26.6767 23.6791C26.5875 24.0692 26.599 24.4755 26.71 24.86H26.51C26.3953 24.4427 26.3873 24.0033 26.4869 23.5821C26.5865 23.161 26.7905 22.7716 27.08 22.45C27.5532 22.0422 28.1466 21.7999 28.77 21.76L28.79 22ZM26.71 24.86C26.7738 25.4487 27.0104 26.0055 27.39 26.46C27.6779 26.7806 28.0533 27.01 28.47 27.12L28.42 27.31C27.9651 27.1953 27.5544 26.9482 27.24 26.6C26.8343 26.1138 26.5805 25.5192 26.51 24.89L26.71 24.86ZM27.37 42.86L28.37 27.19H28.57L27.57 42.86H27.37ZM33.5 45.19C31.3282 44.9941 29.244 44.2396 27.45 43L27.57 42.83C29.3402 44.0827 31.4101 44.8451 33.57 45.04L33.5 45.19ZM39.9 44.12C37.8971 45.0306 35.6902 45.3996 33.5 45.19V44.99C35.6702 45.2256 37.8641 44.884 39.86 44L39.9 44.12ZM40.05 44.05L39.9 44.12L39.86 44L40.01 43.94L40.05 44.05ZM40.74 38.39H40.84C40.8377 38.4333 40.8377 38.4767 40.84 38.52C40.84 38.63 40.84 38.8 40.77 39C40.71 39.4 40.62 39.95 40.54 40.55C40.37 41.74 40.19 43.13 40.14 43.9H40C40 43.12 40.23 41.72 40.4 40.53C40.48 39.93 40.57 39.38 40.63 38.98C40.63 38.78 40.68 38.61 40.7 38.5V38.37L40.74 38.39ZM47 32.93C46.9111 33.9534 46.556 34.9357 45.9701 35.7795C45.3842 36.6232 44.5878 37.2991 43.66 37.74C43.024 38.0462 42.3521 38.2713 41.66 38.41L41.02 38.51H40.84H40.78V38.31H40.84H41.01L41.63 38.21C42.292 38.0766 42.934 37.8581 43.54 37.56C44.4388 37.1334 45.21 36.4786 45.7768 35.661C46.3435 34.8433 46.686 33.8913 46.77 32.9L47 32.93ZM47.65 20.29C47.52 25.08 47.31 30.38 47 32.93H46.8C47.11 30.4 47.32 25.11 47.44 20.32L47.65 20.29ZM45.15 13.44C46.821 15.3242 47.7145 17.7724 47.65 20.29H47.4C47.4844 17.8292 46.6259 15.429 45 13.58L45.15 13.44ZM38.6 10.07C41.126 10.341 43.4609 11.5423 45.15 13.44L44.99 13.58C43.3396 11.7175 41.0541 10.5373 38.58 10.27L38.6 10.07Z" fill="#010101"/>
<path d="M39.7 18.89C39.7 19.12 38.53 18.89 37.6 19.18C36.67 19.47 36.26 20.18 36.1 19.98C35.94 19.78 36.1 19.67 36.38 19.4C36.7473 19.0646 37.1846 18.8152 37.6603 18.6699C38.136 18.5246 38.638 18.4871 39.13 18.56C39.51 18.64 39.72 18.78 39.7 18.89Z" fill="#010101"/>
<path d="M48.35 19.89C48.14 20.01 47.79 19.3 47.15 19.05C46.51 18.8 45.82 19.05 45.76 18.82C45.7 18.59 45.89 18.57 46.19 18.49C46.5836 18.4194 46.989 18.461 47.36 18.61C47.7305 18.7602 48.0475 19.0179 48.27 19.35C48.43 19.62 48.44 19.82 48.35 19.89Z" fill="#010101"/>
<path d="M40.91 31.67C41.08 33.23 42.18 33.27 42.69 31.67" stroke="#010101" stroke-width="0.25"/>
<path d="M46.19 22.55C46.1899 22.7489 46.1107 22.9395 45.97 23.08C45.8318 23.2194 45.6461 23.3015 45.45 23.31C45.3539 23.3241 45.2562 23.3241 45.16 23.31C45.0697 23.2772 44.9853 23.2299 44.91 23.17C44.8393 23.1048 44.7816 23.0268 44.74 22.94C44.7016 22.8511 44.678 22.7566 44.67 22.66C44.6718 22.4644 44.7509 22.2775 44.89 22.14C45.0271 21.999 45.2135 21.9165 45.41 21.91C45.5023 21.89 45.5978 21.89 45.69 21.91C45.7828 21.9399 45.8686 21.988 45.9425 22.0516C46.0163 22.1151 46.0767 22.1928 46.12 22.28C46.1584 22.3654 46.1821 22.4567 46.19 22.55Z" fill="#010101"/>
<path d="M38.93 22.89C38.9283 23.0856 38.8492 23.2725 38.71 23.41C38.5718 23.5493 38.3861 23.6314 38.19 23.64C38.0942 23.6463 37.998 23.6337 37.9071 23.6028C37.8161 23.5719 37.7322 23.5233 37.66 23.46C37.5814 23.3999 37.5194 23.3207 37.48 23.23C37.4416 23.1445 37.418 23.0533 37.41 22.96C37.4102 22.7611 37.4893 22.5705 37.63 22.43C37.7671 22.2889 37.9535 22.2065 38.15 22.2C38.2459 22.1936 38.342 22.2063 38.433 22.2371C38.5239 22.268 38.6079 22.3166 38.68 22.38C38.7587 22.44 38.8206 22.5192 38.86 22.61C38.8984 22.6989 38.9221 22.7934 38.93 22.89Z" fill="#010101"/>
<path d="M22 22.48C23.37 11.3 33.21 9.13999 36.63 9.74999C38.1049 9.49088 39.6202 9.58409 41.0522 10.022C42.4842 10.46 43.7924 11.2302 44.87 12.27C45.0613 12.3854 45.2176 12.5507 45.322 12.7483C45.4264 12.9458 45.4751 13.168 45.4628 13.3911C45.4504 13.6142 45.3776 13.8297 45.252 14.0145C45.1264 14.1993 44.9529 14.3464 44.75 14.44C45.12 13.08 39.6 11.44 41.14 12.07C42.37 12.61 41.57 13.74 41.02 14.23C39.55 12.74 35.89 12.04 32.95 21.23C30.01 30.42 34.06 36.35 36.45 38.23C34.9344 38.5085 33.3694 38.2126 32.06 37.4C31.28 38.77 33.31 40.4 34.43 40.98C31 41.58 28.99 38.68 28.37 37.36C27.37 37.94 27.78 39.92 28.14 40.63C24.59 38.67 20.29 36.81 22 22.48Z" fill="#010101" stroke="#010101"/>
<path d="M41.75 23.4399C42.5 26.0399 44.22 27.1699 43.15 27.5499C41.59 28.0899 41.3 27.5499 41.35 27.2699" stroke="#010101" stroke-width="0.25"/>
<path d="M30.82 64.6599L40 66.5799L66.44 66.9099L58.15 64.9999L30.82 64.6599Z" fill="#E0DEE9" stroke="#010101" stroke-width="0.25"/>
<path d="M30.83 63.62L40.16 65.53L67.49 65.88L58.16 64L30.83 63.62Z" fill="#E0DEE9" stroke="#010101" stroke-width="0.25"/>
<path d="M43.39 64.5299L49.08 65.1999L58.19 65.3099L52.5 64.6399L43.39 64.5299Z" fill="#AA9A85" stroke="#010101" stroke-width="0.25"/>
<path d="M30.83 63.62L40 65.53V66.53L30.82 64.61L30.83 63.62Z" fill="#E0DEE9" stroke="#010101" stroke-width="0.25"/>
<path d="M31.87 64.23L36.05 65.13V65.4L31.87 64.5V64.23Z" fill="#AA9A85" stroke="#010101" stroke-width="0.25"/>
<path d="M40.08 65.53L40.33 46.38L67.71 46.73L67.46 65.88L40.08 65.53Z" fill="#E0DEE9" stroke="#010101" stroke-width="0.25"/>
<path d="M39.73 46.0699L40.31 46.3799L67.71 46.7299L67.12 46.4199L39.73 46.0699Z" fill="#E0DEE9" stroke="#010101" stroke-width="0.25"/>
<path d="M40.08 65.5299L40.33 46.3799L39.73 46.0699L39.49 65.3699L40.08 65.5299Z" fill="#E0DEE9" stroke="#010101" stroke-width="0.25"/>
<path d="M40.07 66.5799L66.4 66.9099C66.5363 66.9181 66.6728 66.8983 66.8011 66.8518C66.9295 66.8052 67.0469 66.7328 67.1462 66.6391C67.2455 66.5454 67.3246 66.4324 67.3786 66.307C67.4325 66.1816 67.4603 66.0465 67.46 65.9099L40.08 65.5599L40.07 66.5799Z" fill="#E0DEE9" stroke="#010101" stroke-width="0.25"/>
<path d="M57.4648 65.5184C57.3815 65.0732 56.9531 64.7799 56.508 64.8632C56.0628 64.9465 55.7695 65.3749 55.8528 65.8201L56.1563 67.4419C56.2396 67.887 56.668 68.1804 57.1132 68.0971C57.5583 68.0137 57.8516 67.5854 57.7683 67.1402L57.4648 65.5184Z" fill="#EEC7B4" stroke="black" stroke-width="0.25" stroke-miterlimit="10"/>
<path d="M59.1026 65.6644C59.0193 65.2192 58.5909 64.9259 58.1457 65.0092C57.7006 65.0925 57.4073 65.5209 57.4906 65.966L57.7941 67.5879C57.8774 68.033 58.3058 68.3264 58.7509 68.243C59.1961 68.1597 59.4894 67.7313 59.4061 67.2862L59.1026 65.6644Z" fill="#EEC7B4" stroke="black" stroke-width="0.25" stroke-miterlimit="10"/>
<path d="M56.073 66.1856C55.9897 65.7405 55.5613 65.4471 55.1161 65.5304C54.671 65.6137 54.3777 66.0421 54.461 66.4873L54.6192 67.3326C54.7025 67.7778 55.1309 68.0711 55.576 67.9878C56.0212 67.9045 56.3145 67.4761 56.2312 67.0309L56.073 66.1856Z" fill="#EEC7B4" stroke="black" stroke-width="0.25" stroke-miterlimit="10"/>
<path d="M59.8276 64.7366L59.8079 64.7403C59.3682 64.8226 59.0784 65.2457 59.1607 65.6855L59.4569 67.268C59.5392 67.7077 59.9623 67.9975 60.4021 67.9152L60.4217 67.9115C60.8614 67.8292 61.1512 67.406 61.0689 66.9663L60.7727 65.3838C60.6904 64.9441 60.2673 64.6543 59.8276 64.7366Z" fill="#EEC7B4" stroke="black" stroke-width="0.25" stroke-miterlimit="10"/>
<path d="M30.83 35.77H14.02V57.68H30.83V35.77Z" fill="#E0DEE9" stroke="#010101" stroke-width="0.25"/>
<path d="M15.0702 46.9655C15.5207 46.9192 15.8483 46.5164 15.802 46.0659C15.7557 45.6154 15.3529 45.2878 14.9024 45.3341L13.2611 45.5029C12.8106 45.5492 12.4829 45.9519 12.5293 46.4024C12.5756 46.8529 12.9783 47.1806 13.4288 47.1343L15.0702 46.9655Z" fill="#EEC7B4" stroke="#010101" stroke-width="0.25" stroke-miterlimit="10"/>
<path d="M14.7911 48.6037C15.2416 48.5574 15.5693 48.1546 15.5229 47.7041C15.4766 47.2536 15.0739 46.926 14.6234 46.9723L12.982 47.141C12.5315 47.1874 12.2039 47.5901 12.2502 48.0406C12.2965 48.4911 12.6993 48.8188 13.1498 48.7724L14.7911 48.6037Z" fill="#EEC7B4" stroke="#010101" stroke-width="0.25" stroke-miterlimit="10"/>
<path d="M14.5192 45.5369C14.9697 45.4906 15.2974 45.0879 15.251 44.6374C15.2047 44.1869 14.802 43.8592 14.3515 43.9055L13.496 43.9935C13.0455 44.0398 12.7178 44.4425 12.7641 44.893C12.8105 45.3435 13.2132 45.6712 13.6637 45.6249L14.5192 45.5369Z" fill="#EEC7B4" stroke="#010101" stroke-width="0.25" stroke-miterlimit="10"/>
<path d="M15.6604 49.3991L15.6583 49.3792C15.6126 48.9342 15.2148 48.6106 14.7697 48.6563L13.1682 48.821C12.7232 48.8667 12.3995 49.2646 12.4453 49.7096L12.4473 49.7295C12.4931 50.1745 12.8909 50.4981 13.3359 50.4524L14.9375 50.2877C15.3825 50.242 15.7061 49.8441 15.6604 49.3991Z" fill="#EEC7B4" stroke="#010101" stroke-width="0.25" stroke-miterlimit="10"/>
</svg>
