<svg width="80" height="80" viewBox="0 0 80 80" fill="none" xmlns="http://www.w3.org/2000/svg">
<path d="M40 70C56.5685 70 70 56.5685 70 40C70 23.4315 56.5685 10 40 10C23.4315 10 10 23.4315 10 40C10 56.5685 23.4315 70 40 70Z" fill="#273DA4"/>
<path fill-rule="evenodd" clip-rule="evenodd" d="M40.07 64.58C31 62.37 21.92 55.28 21.4 44L20.8 30.66C21.8185 30.6002 22.8016 30.2643 23.6437 29.6882C24.4857 29.1121 25.1551 28.3177 25.58 27.39C26.0669 26.4763 26.2961 25.4475 26.2433 24.4135C26.1905 23.3795 25.8575 22.3794 25.28 21.52C29.8903 18.7846 34.8718 16.73 40.07 15.42C45.236 16.7277 50.175 18.8078 54.72 21.59C54.1779 22.4633 53.866 23.4598 53.8136 24.4864C53.7611 25.5129 53.9697 26.536 54.42 27.46C54.8557 28.3805 55.5276 29.169 56.3673 29.7452C57.207 30.3214 58.1844 30.6647 59.2 30.74L58.6 44.08C58.23 55.28 49.19 62.37 40.07 64.58Z" fill="#477D95" stroke="#010101" stroke-width="0.25"/>
<path fill-rule="evenodd" clip-rule="evenodd" d="M40.11 64.52V15.42C34.9231 16.7122 29.9653 18.7931 25.41 21.59C25.9521 22.4615 26.2641 23.4563 26.3165 24.4813C26.369 25.5063 26.1603 26.5278 25.71 27.45C25.2459 28.3553 24.5552 29.125 23.7053 29.684C22.8553 30.2431 21.8751 30.5724 20.86 30.64L21.46 44C21.91 55.23 31 62.31 40.11 64.52Z" fill="#AFC8D8" stroke="#010101" stroke-width="0.25"/>
<path fill-rule="evenodd" clip-rule="evenodd" d="M40.12 20.46C36.5353 21.4231 33.0827 22.8236 29.84 24.63C30.2411 26.4687 29.9975 28.3895 29.15 30.07C28.3257 31.8451 26.8666 33.2472 25.06 34L25.48 44.18C25.82 52.72 32.57 58.52 40.12 60.57C47.74 58.52 54.35 52.72 54.7 44.18L55.18 34C53.3854 33.2581 51.9311 31.875 51.1 30.12C50.2539 28.4393 50.0069 26.5201 50.4 24.68C47.1597 22.8563 43.707 21.4389 40.12 20.46Z" fill="#35BFB7" stroke="#010101" stroke-width="0.25"/>
<path fill-rule="evenodd" clip-rule="evenodd" d="M40.12 60.52V20.46C36.5257 21.423 33.0631 22.8234 29.81 24.63C30.2031 26.4701 29.9561 28.3893 29.11 30.07C28.2777 31.8464 26.8119 33.248 25 34L25.41 44.17C25.86 52.61 32.51 58.47 40.12 60.52Z" fill="#F1E324" stroke="#010101" stroke-width="0.25"/>
<path d="M32.06 47.16H38.31V48.61H35.75V51.45H38.31V52.9H32.06V51.45H34.53V48.61H32.06V47.16ZM33.24 44.39V46.39H32.06V40.94H33.24V42.94H38.31V44.39H33.24ZM38.31 34.47H34.56L37.65 36.31V37L34.65 38.83H38.32V40.19H32.06V39L36 36.62L32.11 34.32V33.13H38.36L38.31 34.47ZM32.06 31.63V30.18H37.14V27H38.31V31.59L32.06 31.63Z" fill="white"/>
<path d="M49.43 48.11C49.439 48.8405 49.2673 49.5619 48.93 50.21C48.606 50.8151 48.1261 51.3227 47.54 51.68C46.9326 52.0321 46.242 52.2151 45.54 52.21C44.8376 52.2181 44.1462 52.0349 43.54 51.68C42.9494 51.3282 42.4682 50.8193 42.15 50.21C41.8494 49.6115 41.6805 48.9555 41.6546 48.2862C41.6287 47.617 41.7465 46.9499 42 46.33C42.2252 45.8148 42.5676 45.3594 43 45L44 46.13C43.7196 46.3545 43.4932 46.639 43.3374 46.9627C43.1816 47.2863 43.1005 47.6408 43.1 48C43.091 48.4367 43.1979 48.8681 43.41 49.25C43.6055 49.6152 43.9048 49.9144 44.27 50.11C44.6514 50.3234 45.0831 50.4305 45.52 50.42C45.9567 50.429 46.3881 50.322 46.77 50.11C47.1361 49.9122 47.438 49.6138 47.64 49.25C47.8443 48.8655 47.9475 48.4353 47.94 48C47.9447 47.6356 47.8661 47.275 47.7101 46.9457C47.5541 46.6164 47.3249 46.3271 47.04 46.1L48.04 44.97C48.4767 45.3293 48.8198 45.7891 49.04 46.31C49.293 46.8766 49.4258 47.4895 49.43 48.11ZM49.43 40.43C49.4302 41.0183 49.3494 41.6038 49.19 42.17C49.0626 42.6498 48.8454 43.1011 48.55 43.5L47.24 42.91C47.4869 42.554 47.6791 42.163 47.81 41.75C47.941 41.319 48.0051 40.8704 48 40.42C48.0246 40.0382 47.9524 39.6564 47.79 39.31C47.7299 39.2038 47.6426 39.1155 47.5372 39.054C47.4318 38.9925 47.312 38.9601 47.19 38.96C47.1054 38.9588 47.0218 38.9772 46.9454 39.0136C46.8691 39.05 46.8022 39.1035 46.75 39.17C46.6181 39.3287 46.5195 39.5124 46.46 39.71C46.39 39.93 46.31 40.22 46.22 40.6C46.1227 41.0752 45.9923 41.543 45.83 42C45.7087 42.3889 45.4799 42.7356 45.17 43C44.8284 43.2745 44.3976 43.4134 43.96 43.39C43.5363 43.382 43.125 43.2461 42.78 43C42.3944 42.7355 42.0953 42.3634 41.92 41.93C41.6982 41.3705 41.5927 40.7716 41.61 40.17C41.6105 39.6916 41.6676 39.215 41.78 38.75C41.8835 38.3234 42.0521 37.9152 42.28 37.54L43.61 38.08C43.2283 38.7148 43.0213 39.4393 43.01 40.18C42.9849 40.5587 43.0682 40.9368 43.25 41.27C43.317 41.376 43.4101 41.463 43.5204 41.5225C43.6308 41.5821 43.7546 41.6122 43.88 41.61C44.0062 41.6115 44.1297 41.5738 44.2336 41.5022C44.3375 41.4306 44.4166 41.3285 44.46 41.21C44.6175 40.8179 44.7413 40.4131 44.83 40C44.9334 39.521 45.0704 39.0498 45.24 38.59C45.3696 38.2247 45.5939 37.9003 45.89 37.65C46.2201 37.3679 46.6465 37.2245 47.08 37.25C47.5059 37.2434 47.9228 37.3731 48.27 37.62C48.6568 37.8849 48.9533 38.2618 49.12 38.7C49.3348 39.251 49.4401 39.8387 49.43 40.43ZM49.43 32.57C49.4316 33.1584 49.3508 33.7441 49.19 34.31C49.0622 34.7927 48.8451 35.2472 48.55 35.65L47.24 35.06C47.4851 34.7029 47.6771 34.3122 47.81 33.9C47.9419 33.4658 48.006 33.0138 48 32.56C48.0238 32.1815 47.9516 31.8031 47.79 31.46C47.732 31.3512 47.6455 31.2603 47.5398 31.1969C47.4342 31.1335 47.3132 31.1 47.19 31.1C47.1047 31.1008 47.0208 31.121 46.9445 31.1591C46.8683 31.1972 46.8017 31.2523 46.75 31.32C46.6181 31.4787 46.5195 31.6624 46.46 31.86C46.39 32.08 46.31 32.37 46.22 32.75C46.1152 33.2287 45.9782 33.6998 45.81 34.16C45.6887 34.5489 45.4599 34.8956 45.15 35.16C44.8175 35.4029 44.4111 35.5231 44 35.5C43.5785 35.5073 43.1656 35.3813 42.82 35.14C42.4302 34.8801 42.1299 34.5065 41.96 34.07C41.7365 33.5109 41.631 32.9118 41.65 32.31C41.6506 31.8349 41.7077 31.3616 41.82 30.9C41.9216 30.4727 42.0903 30.0643 42.32 29.69L43.65 30.23C43.2696 30.8617 43.0626 31.5827 43.05 32.32C43.023 32.7021 43.1063 33.0839 43.29 33.42C43.357 33.526 43.4501 33.613 43.5604 33.6725C43.6708 33.7321 43.7946 33.7622 43.92 33.76C44.0462 33.7615 44.1697 33.7238 44.2736 33.6522C44.3775 33.5806 44.4566 33.4785 44.5 33.36C44.6577 32.9577 44.7815 32.5429 44.87 32.12C44.9735 31.6377 45.1105 31.1632 45.28 30.7C45.4121 30.3359 45.636 30.0122 45.93 29.76C46.2636 29.4851 46.6884 29.3458 47.12 29.37C47.5441 29.3659 47.9593 29.4915 48.31 29.73C48.6921 29.9999 48.9875 30.3751 49.16 30.81C49.3633 31.3736 49.455 31.9714 49.43 32.57Z" fill="white"/>
</svg>
