<svg width="80" height="80" viewBox="0 0 80 80" fill="none" xmlns="http://www.w3.org/2000/svg">
<path d="M40 70C56.5685 70 70 56.5685 70 40C70 23.4315 56.5685 10 40 10C23.4315 10 10 23.4315 10 40C10 56.5685 23.4315 70 40 70Z" fill="#273DA4"/>
<path fill-rule="evenodd" clip-rule="evenodd" d="M40.07 64.55C31 62.34 21.92 55.25 21.4 44L20.8 30.66C21.8185 30.6002 22.8015 30.2643 23.6436 29.6882C24.4857 29.1121 25.1551 28.3177 25.58 27.39C26.0668 26.4763 26.2961 25.4475 26.2433 24.4135C26.1904 23.3795 25.8575 22.3794 25.28 21.52C29.8903 18.7846 34.8718 16.73 40.07 15.42C45.236 16.7277 50.175 18.8078 54.72 21.59C54.1779 22.4633 53.866 23.4598 53.8135 24.4864C53.7611 25.5129 53.9697 26.536 54.42 27.46C54.8557 28.3805 55.5276 29.169 56.3673 29.7452C57.207 30.3214 58.1844 30.6647 59.2 30.74L58.6 44.08C58.23 55.25 49.19 62.34 40.07 64.55Z" fill="#477D95" stroke="#010101" stroke-width="0.25"/>
<path fill-rule="evenodd" clip-rule="evenodd" d="M40.07 64.52V15.42C34.8933 16.7145 29.9457 18.7954 25.4 21.59C25.9421 22.4615 26.254 23.4563 26.3065 24.4813C26.359 25.5063 26.1503 26.5278 25.7 27.45C25.2383 28.3552 24.5496 29.125 23.7012 29.6842C22.8528 30.2433 21.8738 30.5727 20.86 30.64L21.46 44C21.9 55.23 31 62.31 40.07 64.52Z" fill="#AFC8D8" stroke="#010101" stroke-width="0.25"/>
<path fill-rule="evenodd" clip-rule="evenodd" d="M40.16 19.9399C36.5604 20.8967 33.0938 22.2975 29.84 24.1099C30.2403 25.9488 29.9967 27.8693 29.15 29.5499C28.3157 31.3062 26.8578 32.6893 25.06 33.4299L25.48 43.6099C25.82 52.1599 32.54 57.9999 40.09 59.9999C47.7 57.9999 54.35 52.1599 54.7 43.6099L55.18 33.4299C53.3854 32.688 51.9311 31.305 51.1 29.5499C50.2539 27.8693 50.0069 25.9501 50.4 24.1099C47.1733 22.2997 43.7334 20.8988 40.16 19.9399Z" fill="#EFAF2E" stroke="#010101" stroke-width="0.25"/>
<path fill-rule="evenodd" clip-rule="evenodd" d="M40.1 60V20C36.5156 20.9596 33.063 22.3568 29.82 24.16C30.2211 25.9988 29.9775 27.9196 29.13 29.6C28.3033 31.357 26.8526 32.7436 25.06 33.49L25.48 43.66C25.89 52.08 32.51 57.94 40.1 60Z" fill="#F1E324" stroke="#010101" stroke-width="0.25"/>
<path d="M33.1 47.66C32.2753 47.6692 31.4577 47.5057 30.7 47.18C30.004 46.8703 29.3958 46.3927 28.93 45.79L30.57 43.79C30.8257 44.2111 31.1811 44.5627 31.6049 44.8139C32.0287 45.065 32.5079 45.2079 33 45.23C34.21 45.23 34.81 44.52 34.81 43.1V37H30.31V34.63H37.76V42.94C37.8084 43.5796 37.7299 44.2225 37.5291 44.8317C37.3284 45.4409 37.0092 46.0045 36.59 46.49C36.1179 46.9113 35.5651 47.2322 34.9651 47.4333C34.3652 47.6344 33.7306 47.7116 33.1 47.66ZM45.88 47.66C44.8865 47.6589 43.8976 47.5244 42.94 47.26C42.1244 47.0399 41.3553 46.674 40.67 46.18L41.67 43.95C42.2803 44.3857 42.9552 44.7231 43.67 44.95C44.4036 45.1864 45.1693 45.3078 45.94 45.31C46.5838 45.3511 47.2275 45.2272 47.81 44.95C47.9887 44.8503 48.1382 44.7055 48.2435 44.5301C48.3487 44.3546 48.4062 44.1546 48.41 43.95C48.4145 43.8042 48.3831 43.6596 48.3186 43.5288C48.2541 43.398 48.1584 43.2851 48.04 43.2C47.776 42.9722 47.4654 42.805 47.13 42.71C46.76 42.58 46.26 42.45 45.63 42.3C44.8172 42.1171 44.0158 41.8867 43.23 41.61C42.6087 41.376 42.0554 40.9911 41.62 40.49C41.1538 39.9119 40.9187 39.1814 40.96 38.44C40.9579 37.7272 41.1705 37.0303 41.57 36.44C42.0077 35.7983 42.6227 35.2979 43.34 35C44.2915 34.6132 45.3133 34.4292 46.34 34.46C47.1494 34.4586 47.9558 34.5594 48.74 34.76C49.4642 34.9276 50.1564 35.2112 50.79 35.6L49.87 37.85C48.7948 37.2111 47.5705 36.8662 46.32 36.85C45.6799 36.806 45.0408 36.9484 44.48 37.26C44.2984 37.3706 44.1486 37.5264 44.0452 37.7122C43.9418 37.898 43.8883 38.1074 43.89 38.32C43.8786 38.538 43.9389 38.7538 44.0617 38.9344C44.1845 39.115 44.363 39.2504 44.57 39.32C45.248 39.5972 45.9513 39.8082 46.67 39.95C47.4832 40.1314 48.2846 40.3619 49.07 40.64C49.6839 40.8674 50.2307 41.2457 50.66 41.74C51.1275 42.2989 51.3699 43.0119 51.34 43.74C51.3413 44.4557 51.1212 45.1542 50.71 45.74C50.251 46.3835 49.6154 46.8801 48.88 47.17C47.9237 47.5355 46.9029 47.7023 45.88 47.66Z" fill="white"/>
</svg>
