<svg width="80" height="80" viewBox="0 0 80 80" fill="none" xmlns="http://www.w3.org/2000/svg">
<path d="M40 70C56.5685 70 70 56.5685 70 40C70 23.4315 56.5685 10 40 10C23.4315 10 10 23.4315 10 40C10 56.5685 23.4315 70 40 70Z" fill="#273DA4"/>
<path fill-rule="evenodd" clip-rule="evenodd" d="M40.07 64.55C31 62.34 21.92 55.25 21.4 44L20.8 30.66C21.8185 30.6002 22.8015 30.2643 23.6436 29.6882C24.4857 29.1121 25.1551 28.3177 25.58 27.39C26.0668 26.4763 26.2961 25.4475 26.2433 24.4135C26.1904 23.3795 25.8575 22.3794 25.28 21.52C29.8903 18.7846 34.8718 16.73 40.07 15.42C45.236 16.7277 50.175 18.8078 54.72 21.59C54.1779 22.4633 53.866 23.4598 53.8135 24.4864C53.7611 25.5129 53.9697 26.536 54.42 27.46C54.8557 28.3805 55.5276 29.169 56.3673 29.7452C57.207 30.3214 58.1844 30.6647 59.2 30.74L58.6 44.08C58.23 55.25 49.19 62.34 40.07 64.55Z" fill="#477D95" stroke="#010101" stroke-width="0.25"/>
<path fill-rule="evenodd" clip-rule="evenodd" d="M40.07 64.52V15.42C34.8933 16.7145 29.9457 18.7954 25.4 21.59C25.9421 22.4615 26.254 23.4563 26.3065 24.4813C26.359 25.5063 26.1503 26.5278 25.7 27.45C25.2383 28.3552 24.5496 29.125 23.7012 29.6842C22.8528 30.2433 21.8738 30.5727 20.86 30.64L21.46 44C21.9 55.23 31 62.31 40.07 64.52Z" fill="#AFC8D8" stroke="#010101" stroke-width="0.25"/>
<path fill-rule="evenodd" clip-rule="evenodd" d="M40.16 19.9399C36.5604 20.8967 33.0938 22.2975 29.84 24.1099C30.2403 25.9488 29.9967 27.8693 29.15 29.5499C28.3157 31.3062 26.8578 32.6893 25.06 33.4299L25.48 43.6099C25.82 52.1599 32.54 57.9999 40.09 59.9999C47.7 57.9999 54.35 52.1599 54.7 43.6099L55.18 33.4299C53.3854 32.688 51.9311 31.305 51.1 29.5499C50.2539 27.8693 50.0069 25.9501 50.4 24.1099C47.1733 22.2997 43.7334 20.8988 40.16 19.9399Z" fill="#EFAF2E" stroke="#010101" stroke-width="0.25"/>
<path fill-rule="evenodd" clip-rule="evenodd" d="M40.1 60V20C36.5156 20.9596 33.063 22.3568 29.82 24.16C30.2211 25.9988 29.9775 27.9196 29.13 29.6C28.3033 31.357 26.8526 32.7436 25.06 33.49L25.48 43.66C25.89 52.08 32.51 57.94 40.1 60Z" fill="#F1E324" stroke="#010101" stroke-width="0.25"/>
 <text x="30" y="50" font-family="Arial" font-size="28" fill="black">N</text>
</svg>
