<svg width="80" height="80" viewBox="0 0 80 80" fill="none" xmlns="http://www.w3.org/2000/svg">
<path d="M40 70C56.5685 70 70 56.5685 70 40C70 23.4315 56.5685 10 40 10C23.4315 10 10 23.4315 10 40C10 56.5685 23.4315 70 40 70Z" fill="#273DA4"/>
<path fill-rule="evenodd" clip-rule="evenodd" d="M40.07 64.58C31 62.37 21.92 55.28 21.4 44L20.8 30.66C21.8185 30.6002 22.8015 30.2643 23.6436 29.6882C24.4857 29.1121 25.1551 28.3177 25.58 27.39C26.0668 26.4763 26.2961 25.4475 26.2433 24.4135C26.1904 23.3795 25.8575 22.3794 25.28 21.52C29.8903 18.7846 34.8718 16.73 40.07 15.42C45.236 16.7277 50.175 18.8078 54.72 21.59C54.1779 22.4633 53.866 23.4598 53.8135 24.4864C53.7611 25.5129 53.9697 26.536 54.42 27.46C54.8557 28.3805 55.5276 29.169 56.3673 29.7452C57.207 30.3214 58.1844 30.6647 59.2 30.74L58.6 44.08C58.23 55.28 49.19 62.37 40.07 64.58Z" fill="#477D95" stroke="#010101" stroke-width="0.25"/>
<path fill-rule="evenodd" clip-rule="evenodd" d="M40.07 64.55V15.45C34.8933 16.7444 29.9457 18.8253 25.4 21.62C25.9421 22.4914 26.254 23.4862 26.3065 24.5112C26.359 25.5362 26.1503 26.5577 25.7 27.48C25.2383 28.3851 24.5496 29.1549 23.7012 29.7141C22.8528 30.2732 21.8738 30.6026 20.86 30.67L21.46 44C21.9 55.26 31 62.34 40.07 64.55Z" fill="#AFC8D8" stroke="#010101" stroke-width="0.25"/>
<path fill-rule="evenodd" clip-rule="evenodd" d="M40.16 20C36.5604 20.9568 33.0938 22.3575 29.84 24.17C30.2403 26.0088 29.9967 27.9293 29.15 29.61C28.313 31.3667 26.8564 32.752 25.06 33.5L25.48 43.67C25.82 52.19 32.54 58 40.09 60C47.7 58 54.35 52.19 54.7 43.64L55.18 33.47C53.3863 32.7216 51.933 31.336 51.1 29.58C50.2539 27.8993 50.0069 25.9801 50.4 24.14C47.1718 22.3401 43.732 20.9494 40.16 20V20Z" fill="#00A198" stroke="#010101" stroke-width="0.25"/>
<path fill-rule="evenodd" clip-rule="evenodd" d="M40.1 60V20C36.5138 20.9587 33.0607 22.3595 29.82 24.17C30.2204 26.0055 29.9767 27.9229 29.13 29.6C28.3033 31.357 26.8526 32.7436 25.06 33.49L25.48 43.66C25.89 52.11 32.51 58 40.1 60Z" fill="#35BFB7" stroke="#010101" stroke-width="0.25"/>
<path d="M39.15 29.83C39.4468 29.6653 39.7806 29.579 40.12 29.579C40.4594 29.579 40.7932 29.6653 41.09 29.83L50 34.7099C50.2771 34.8593 50.5093 35.0798 50.6728 35.3487C50.8362 35.6176 50.925 35.9253 50.93 36.24V46C50.9194 46.326 50.8208 46.643 50.6448 46.9176C50.4688 47.1922 50.2218 47.4142 49.93 47.56L41.09 52.4199C40.7807 52.5865 40.4331 52.6686 40.082 52.658C39.7309 52.6475 39.3888 52.5447 39.09 52.36L36.44 50.9C36.2446 50.8155 36.0679 50.6932 35.92 50.54C36.04 50.39 36.24 50.37 36.4 50.31C36.765 50.185 37.1167 50.0242 37.45 49.83C37.4907 49.8052 37.5374 49.7922 37.585 49.7922C37.6326 49.7922 37.6793 49.8052 37.72 49.83C38.48 50.25 39.23 50.6899 39.99 51.0999C40.15 51.1899 40.31 51.1 40.45 51L49.14 46.2299C49.184 46.2082 49.2217 46.1758 49.2496 46.1356C49.2776 46.0953 49.295 46.0487 49.3 46V36.29C49.3044 36.2262 49.2884 36.1628 49.2542 36.1088C49.22 36.0549 49.1695 36.0132 49.11 35.99L40.29 31.15C40.2395 31.1168 40.1804 31.0992 40.12 31.0992C40.0596 31.0992 40.0005 31.1168 39.95 31.15L31.13 36C31.0704 36.0221 31.0201 36.0639 30.9874 36.1184C30.9547 36.1729 30.9415 36.2369 30.95 36.2999V46C30.9309 46.0516 30.9309 46.1083 30.95 46.16C30.9839 46.2065 31.0285 46.2442 31.08 46.27L33.43 47.56C33.6489 47.6907 33.8924 47.775 34.1453 47.8077C34.3982 47.8404 34.6551 47.8207 34.9 47.75C35.108 47.6758 35.2889 47.5408 35.4191 47.3624C35.5493 47.1841 35.6228 46.9706 35.63 46.75C35.63 43.54 35.63 40.3299 35.63 37.1199C35.6299 37.0854 35.637 37.0511 35.6508 37.0194C35.6646 36.9877 35.6848 36.9592 35.7102 36.9357C35.7356 36.9122 35.7655 36.8942 35.7982 36.8829C35.8309 36.8716 35.8656 36.8672 35.9 36.8699H37.03C37.0665 36.8695 37.1027 36.877 37.1359 36.892C37.1692 36.907 37.1988 36.9291 37.2226 36.9567C37.2464 36.9843 37.2639 37.0168 37.2738 37.052C37.2838 37.0871 37.2859 37.1239 37.28 37.16C37.28 40.39 37.28 43.6199 37.28 46.8499C37.2927 47.2787 37.1921 47.7031 36.9885 48.0806C36.7848 48.458 36.4853 48.7751 36.12 49C35.6138 49.2466 35.0581 49.3748 34.495 49.3748C33.9319 49.3748 33.3762 49.2466 32.87 49C32.01 48.58 31.19 48.0899 30.34 47.6399C30.0462 47.4968 29.7974 47.2755 29.621 47.0003C29.4446 46.7252 29.3474 46.4067 29.34 46.08V36.24C29.3423 35.9196 29.432 35.6059 29.5994 35.3328C29.7668 35.0597 30.0056 34.8374 30.29 34.6899L39.15 29.83Z" fill="white"/>
<path d="M41.3901 36.7299C42.6916 36.5643 44.0136 36.7616 45.2101 37.2999C45.639 37.544 45.9955 37.8976 46.2432 38.3245C46.4909 38.7514 46.621 39.2364 46.6201 39.7299C46.6017 39.7906 46.5626 39.8429 46.5096 39.8776C46.4566 39.9123 46.393 39.9273 46.3301 39.9199H45.2101C45.0501 39.9199 44.9601 39.7799 44.9401 39.6499C44.8951 39.4102 44.7984 39.1831 44.6568 38.9846C44.5152 38.786 44.332 38.6206 44.1201 38.4999C43.4069 38.2269 42.6406 38.1208 41.8801 38.1899C41.3218 38.1776 40.7701 38.3121 40.2801 38.5799C40.1169 38.7059 39.9967 38.8792 39.9359 39.0761C39.875 39.273 39.8765 39.4839 39.9401 39.6799C40.0601 39.9599 40.3901 40.0499 40.6601 40.1299C42.2101 40.5199 43.8601 40.4899 45.3801 40.9999C45.7029 41.089 46.0016 41.2493 46.2543 41.4691C46.5069 41.6889 46.7071 41.9626 46.8401 42.2699C46.9923 42.7038 47.029 43.1698 46.9466 43.6221C46.8642 44.0745 46.6655 44.4976 46.3701 44.8499C45.8177 45.3748 45.1214 45.7229 44.3701 45.8499C43.3823 46.0449 42.3702 46.0854 41.3701 45.9699C40.4066 45.9089 39.4836 45.5606 38.7201 44.9699C38.4224 44.7036 38.188 44.3742 38.034 44.0056C37.88 43.6371 37.8103 43.2388 37.8301 42.8399C37.8325 42.8074 37.8415 42.7758 37.8566 42.7469C37.8717 42.718 37.8925 42.6925 37.9178 42.6719C37.943 42.6513 37.9722 42.6361 38.0036 42.6271C38.0349 42.6182 38.0677 42.6157 38.1001 42.6199H39.2301C39.2983 42.6197 39.3641 42.6454 39.4142 42.6918C39.4643 42.7382 39.495 42.8018 39.5001 42.8699C39.5182 43.0979 39.5836 43.3197 39.6921 43.5211C39.8005 43.7226 39.9497 43.8992 40.1301 44.0399C40.9388 44.4268 41.8377 44.5858 42.7301 44.4999C43.476 44.558 44.2213 44.3795 44.8601 43.9899C44.9902 43.8636 45.0874 43.7073 45.1432 43.5347C45.199 43.3621 45.2117 43.1785 45.1801 42.9999C45.0901 42.6799 44.7401 42.5299 44.4401 42.4299C42.9101 41.9599 41.2501 42.1299 39.7401 41.5999C39.4235 41.5125 39.1298 41.3572 38.8794 41.1448C38.629 40.9324 38.4279 40.668 38.2901 40.3699C38.1148 39.9312 38.0706 39.4511 38.1629 38.9878C38.2552 38.5245 38.48 38.0979 38.8101 37.7599C39.5303 37.1412 40.441 36.7883 41.3901 36.7599V36.7299Z" fill="white"/>
</svg>
