<svg width="80" height="80" viewBox="0 0 80 80" fill="none" xmlns="http://www.w3.org/2000/svg">
<path d="M40 70C56.5685 70 70 56.5685 70 40C70 23.4315 56.5685 10 40 10C23.4315 10 10 23.4315 10 40C10 56.5685 23.4315 70 40 70Z" fill="#273DA4"/>
<path fill-rule="evenodd" clip-rule="evenodd" d="M40.07 64.58C31 62.37 21.92 55.28 21.4 44L20.8 30.66C21.8185 30.6002 22.8015 30.2643 23.6436 29.6882C24.4857 29.1121 25.1551 28.3177 25.58 27.39C26.0668 26.4763 26.2961 25.4475 26.2433 24.4135C26.1904 23.3795 25.8575 22.3794 25.28 21.52C29.8903 18.7846 34.8718 16.73 40.07 15.42C45.236 16.7277 50.175 18.8078 54.72 21.59C54.1779 22.4633 53.866 23.4598 53.8135 24.4864C53.7611 25.5129 53.9697 26.536 54.42 27.46C54.8557 28.3805 55.5276 29.169 56.3673 29.7452C57.207 30.3214 58.1844 30.6647 59.2 30.74L58.6 44.08C58.23 55.28 49.19 62.37 40.07 64.58Z" fill="#477D95" stroke="#010101" stroke-width="0.25"/>
<path fill-rule="evenodd" clip-rule="evenodd" d="M40.07 64.55V15.45C34.8933 16.7444 29.9457 18.8253 25.4 21.62C25.9421 22.4914 26.254 23.4862 26.3065 24.5112C26.359 25.5362 26.1503 26.5577 25.7 27.48C25.2383 28.3851 24.5496 29.1549 23.7012 29.7141C22.8528 30.2732 21.8738 30.6026 20.86 30.67L21.46 44C21.9 55.2599 31 62.34 40.07 64.55Z" fill="#AFC8D8" stroke="#010101" stroke-width="0.25"/>
<path fill-rule="evenodd" clip-rule="evenodd" d="M40.16 20C36.5604 20.9568 33.0938 22.3575 29.84 24.17C30.2403 26.0088 29.9967 27.9293 29.15 29.61C28.313 31.3667 26.8564 32.752 25.06 33.5L25.48 43.67C25.82 52.19 32.54 58 40.09 60C47.7 58 54.35 52.19 54.7 43.64L55.18 33.47C53.3863 32.7216 51.933 31.336 51.1 29.58C50.2539 27.8993 50.0069 25.9801 50.4 24.14C47.1718 22.3401 43.732 20.9494 40.16 20Z" fill="#273DA4" stroke="#010101" stroke-width="0.25"/>
<path fill-rule="evenodd" clip-rule="evenodd" d="M40.1 60V20C36.5138 20.9587 33.0607 22.3595 29.82 24.17C30.2204 26.0055 29.9767 27.9229 29.13 29.6C28.3033 31.357 26.8526 32.7436 25.06 33.49L25.48 43.66C25.89 52.11 32.51 58 40.1 60Z" fill="#486DF8" stroke="#010101" stroke-width="0.25" stroke-miterlimit="10"/>
<path opacity="0.9" d="M48.44 38C47.9835 37.8062 47.516 37.6392 47.04 37.5C46.7311 38.5242 46.3536 39.5265 45.91 40.5C46.3484 41.4745 46.7226 42.4766 47.03 43.5C47.53 43.35 48.03 43.18 48.45 43C50.24 42.26 51.39 41.28 51.39 40.51C51.39 39.74 50.23 38.77 48.44 38ZM46.5 34.74C46.73 32.86 46.44 31.4 45.76 31.01C45.5817 30.9157 45.3815 30.8708 45.18 30.88C44.18 30.88 42.58 31.69 40.93 33.17C41.6751 33.942 42.3667 34.7639 43 35.63C44.0807 35.7391 45.1531 35.9195 46.21 36.17C46.3329 35.699 46.4297 35.2216 46.5 34.74ZM34.51 31C33.83 31.38 33.51 32.84 33.76 34.73C33.82 35.19 33.91 35.73 34.02 36.17C35.0782 35.9278 36.1502 35.7508 37.23 35.64C37.8761 34.7723 38.5776 33.9472 39.33 33.17C37.68 31.68 36.14 30.86 35.08 30.86C34.8816 30.8611 34.6863 30.9091 34.51 31ZM31.8 38C30.01 38.74 28.85 39.72 28.85 40.49C28.85 41.26 30 42.27 31.8 43C32.2576 43.1909 32.7249 43.3578 33.2 43.5C33.5028 42.4737 33.8805 41.471 34.33 40.5C33.8892 39.5265 33.515 38.5242 33.21 37.5C32.71 37.68 32.24 37.84 31.8 38ZM36.37 44.16C36.12 43.78 35.87 43.4 35.64 43C35.41 42.6 35.19 42.21 34.98 41.81C34.7151 42.4641 34.4848 43.1317 34.29 43.81C35 44 35.65 44.09 36.37 44.19V44.16ZM40.11 47.07C40.604 46.5682 41.0713 46.0408 41.51 45.49C41.06 45.49 40.59 45.49 40.12 45.49C39.65 45.49 39.18 45.49 38.72 45.49C39.1516 46.0532 39.6157 46.5908 40.11 47.1V47.07ZM36.37 36.84C35.66 36.95 34.96 37.08 34.3 37.23C34.49 37.87 34.72 38.52 34.98 39.23C35.19 38.84 35.41 38.44 35.65 38.05C35.89 37.66 36.13 37.22 36.37 36.84ZM40.13 33.94C39.636 34.4418 39.1687 34.9692 38.73 35.52C39.18 35.52 39.65 35.52 40.12 35.52C40.59 35.52 41.06 35.52 41.52 35.52C41.0875 34.967 40.6234 34.4394 40.13 33.94ZM45.25 39.2C45.5213 38.5472 45.7551 37.8795 45.95 37.2C45.29 37.04 44.59 36.91 43.87 36.8C44.12 37.18 44.37 37.57 44.6 37.97C44.83 38.37 45.05 38.8 45.25 39.2ZM43.62 38.56C43.23 37.89 42.82 37.26 42.4 36.68C41.65 36.61 40.89 36.58 40.12 36.58C39.35 36.58 38.6 36.58 37.85 36.67C37.43 37.26 37.02 37.88 36.63 38.54C36.24 39.2 35.89 39.84 35.57 40.54C35.89 41.2 36.24 41.86 36.57 42.54C36.9 43.22 37.37 43.84 37.79 44.42C38.54 44.49 39.3 44.52 40.07 44.52C40.84 44.52 41.6 44.52 42.34 44.43C42.76 43.84 43.17 43.21 43.57 42.55C43.97 41.89 44.3 41.25 44.62 40.55C44.35 39.86 44 39.2 43.62 38.56ZM45.94 43.81C45.7458 43.1315 45.5155 42.4639 45.25 41.81C45.05 42.2 44.83 42.6 44.59 42.99C44.35 43.38 44.11 43.77 43.87 44.14C44.58 44.09 45.27 44 45.94 43.81ZM52.51 40.52C52.51 42.12 50.51 43.64 47.31 44.58C48.03 47.71 47.71 50.2 46.31 51C45.9653 51.1931 45.575 51.2898 45.18 51.28V50.18C45.3815 50.1892 45.5817 50.1443 45.76 50.05C46.45 49.67 46.76 48.2 46.51 46.32C46.4539 45.8317 46.3671 45.3474 46.25 44.87C45.1963 45.1196 44.1273 45.3 43.05 45.41C42.4031 46.2767 41.6982 47.0986 40.94 47.87C42.59 49.37 44.14 50.18 45.19 50.18V51.28C43.8 51.28 41.98 50.28 40.19 48.64C38.35 50.31 36.53 51.26 35.19 51.26V50.17C36.19 50.17 37.79 49.35 39.44 47.87C38.6857 47.1007 37.9873 46.2787 37.35 45.41C36.2223 45.3071 35.103 45.1266 34 44.87C33.887 45.3415 33.8002 45.8189 33.74 46.3C33.5 48.18 33.74 49.64 34.47 50.03C34.6483 50.1243 34.8485 50.1692 35.05 50.16V51.26C34.6573 51.2717 34.2681 51.1821 33.92 51C32.5 50.2 32.18 47.72 32.92 44.59C29.77 43.65 27.73 42.14 27.73 40.59C27.73 39.04 29.78 37.47 32.94 36.53C32.21 33.4 32.53 30.9 33.94 30.11C34.2852 29.9182 34.6752 29.8216 35.07 29.83C36.46 29.83 38.28 30.83 40.07 32.47C41.91 30.81 43.73 29.85 45.07 29.85C45.468 29.8417 45.8611 29.9383 46.21 30.13C47.63 30.92 47.95 33.41 47.21 36.53C50.47 37.41 52.51 38.92 52.51 40.52Z" fill="white"/>
<path d="M40.1 42.69C41.5581 42.69 42.74 41.7184 42.74 40.52C42.74 39.3215 41.5581 38.35 40.1 38.35C38.642 38.35 37.46 39.3215 37.46 40.52C37.46 41.7184 38.642 42.69 40.1 42.69Z" fill="white"/>
</svg>
